<?xml version="1.0" encoding="utf-8"?>
<!-- Generator: Adobe Illustrator 21.0.0, SVG Export Plug-In . SVG Version: 6.00 Build 0)  -->
<svg version="1.1" id="Layer_1" xmlns="http://www.w3.org/2000/svg" xmlns:xlink="http://www.w3.org/1999/xlink" x="0px" y="0px"
	 viewBox="0 0 128 128" style="enable-background:new 0 0 128 128;" xml:space="preserve">
<style type="text/css">
	.st0{fill:#B895F1;}
	.st1{fill:#FFFFFF;}
</style>
<path class="st0" d="M0,64C0,28.7,28.6,0,64,0s64,28.7,64,64s-28.6,64-64,64C28.6,128,0,99.3,0,64"/>
<path class="st1" d="M101,37.7L101,37.7c0-0.4,0-0.4-0.4-0.8l0,0L89,26.3l0,0h-0.4H64.4c-0.8,0-1.2,0.4-1.2,1.2v3.3
	c0,0.8,0.4,1.2,1.2,1.2s1.2-0.4,1.2-1.2v-2.5h21.3v9.8c0,0.8,0.4,1.2,1.2,1.2h10.5v30.4H82.9c-0.8,0-1.2,0.4-1.2,1.2
	s0.4,1.2,1.2,1.2h16.9c0.8,0,1.2-0.4,1.2-1.2L101,37.7C101,38.2,101,38.2,101,37.7z M89.4,36.9v-7l7.6,7.4h-7.6V36.9z M93,98.5
	L73.3,78.4c9.7-10.7,8.9-27.5-1.6-37.3s-27.4-9.4-37,1.2s-8.9,27.5,1.6,37.3c10.1,9.4,25,9.4,35,0L91,99.7c0.4,0.4,1.2,0.4,1.6,0
	C93.4,99.3,93.4,98.9,93,98.5L93,98.5z M30.2,60.3c0-13.1,10.5-24.2,23.7-24.2c12.9,0,23.7,10.7,23.7,24.2
	c0,13.1-10.5,24.2-23.7,24.2C40.7,84.1,30.2,73.4,30.2,60.3z M64.8,48.4c-0.4-2.1-2.8-3.7-4.8-2.9c-1.2,0.4-2,0.8-2.4,2.1l0,0
	c-0.4,0.8-0.8,2.1-0.4,3.3L49.5,55c-1.6-1.6-4-1.2-5.6,0.4s-1.2,4.1,0.4,5.7c0.8,0.8,2.4,1.2,3.6,0.8l3.6,6.6
	c-0.4,0.4-0.4,0.4-0.4,0.8l0,0c-1.2,2.1-0.4,4.5,1.6,5.7c0.8,0.4,1.2,0.4,2,0.4c0.4,0,0.8,0,1.2,0c2-0.4,3.6-2.9,2.8-4.9
	c-0.4-2.1-2.8-3.7-4.8-2.9l-4-6.6c0.8-0.8,1.2-2.5,0.8-3.7l7.2-4.5c1.6,1.6,4,1.6,5.6,0C64.8,51.7,65.2,50.1,64.8,48.4L64.8,48.4z
	 M55.5,70.2c0.8,0.4,1.2,1.6,0.8,2.5c-0.4,0.8-1.6,1.2-2.4,0.8c-0.8-0.4-1.2-1.6-0.8-2.5C53.5,69.7,54.7,69.3,55.5,70.2L55.5,70.2z
	 M45.1,58.3c0-1.2,0.8-2.1,2-2.1c1.2,0,2,0.8,2,2.1s-0.8,2.1-2,2.1C45.9,59.9,45.1,59.1,45.1,58.3L45.1,58.3z M62.4,50.5
	c-0.4,0.8-1.6,1.2-2.4,0.8c-0.8-0.4-1.2-1.6-0.8-2.5c0.4-0.8,1.6-1.2,2.4-0.8c0.4,0.4,0.8,0.8,0.8,1.2
	C62.8,49.6,62.8,50.1,62.4,50.5z"/>
</svg>
