<?xml version="1.0" encoding="utf-8"?>
<!-- Generator: Adobe Illustrator 21.0.0, SVG Export Plug-In . SVG Version: 6.00 Build 0)  -->
<svg version="1.1" id="Layer_1" xmlns="http://www.w3.org/2000/svg" xmlns:xlink="http://www.w3.org/1999/xlink" x="0px" y="0px"
	 viewBox="0 0 31.8 31.2" style="enable-background:new 0 0 31.8 31.2;" xml:space="preserve">
<style type="text/css">
	.st0{fill:#B895F1;}
	.st1{fill:#FFFFFF;}
</style>
<path class="st0" d="M0,15.6C0,7,7.1,0,15.9,0c8.8,0,15.9,7,15.9,15.6c0,8.6-7.1,15.6-15.9,15.6C7.1,31.2,0,24.2,0,15.6"/>
<path class="st1" d="M11.9,14.3L11.9,14.3l-2.4,0v-4.1c1-0.1,1.8-0.9,1.8-1.9c0-1.1-0.9-2-2-2s-2,0.9-2,2c0,1,0.8,1.8,1.8,1.9v4.1
	H6.7c-0.1,0-0.2,0.1-0.2,0.2v2c0,0.1,0.1,0.2,0.2,0.2h5.2c0.1,0,0.2-0.1,0.2-0.2v-2C12.2,14.5,12.1,14.3,11.9,14.3z M7.8,8.3
	c0-0.8,0.7-1.5,1.5-1.5s1.5,0.7,1.5,1.5c0,0.8-0.7,1.5-1.5,1.5S7.8,9.1,7.8,8.3z M11.7,16.4H6.9v-1.5h4.7V16.4z M18.5,14.3
	L18.5,14.3l-5.2,0c-0.1,0-0.2,0.1-0.2,0.2v2c0,0.1,0.1,0.2,0.2,0.2h2.4V21h-1.5c-0.1,0-0.3,0.1-0.3,0.2v3.4c0,0.1,0.1,0.2,0.3,0.2
	h3.4c0.1,0,0.2-0.1,0.2-0.2v-3.4c0-0.1-0.1-0.2-0.2-0.2h-1.5v-4.2h2.4c0.1,0,0.2-0.1,0.2-0.2v-2C18.8,14.5,18.7,14.3,18.5,14.3z
	 M17.4,21.5v2.9h-2.9v-2.9H17.4z M18.3,16.4h-4.7v-1.5h4.7V16.4z M25.1,14.3h-2.4V10h1.7c0.1,0,0.2,0,0.2-0.1c0-0.1,0-0.2,0-0.2
	l-1.9-3.2c-0.1-0.1-0.3-0.1-0.4,0l-1.9,3.2c0,0.1,0,0.2,0,0.2c0,0.1,0.1,0.1,0.2,0.1h1.7v4.3h-2.4c-0.1,0-0.2,0.1-0.2,0.2v2
	c0,0.1,0.1,0.2,0.2,0.2h5.2c0.1,0,0.2-0.1,0.2-0.2v-2C25.4,14.4,25.3,14.3,25.1,14.3z M21,9.5L22.5,7L24,9.5H21z M24.9,16.4h-4.7
	v-1.5h4.7V16.4z"/>
</svg>
