<?xml version="1.0" encoding="utf-8"?>
<!-- Generator: Adobe Illustrator 21.0.0, SVG Export Plug-In . SVG Version: 6.00 Build 0)  -->
<svg version="1.1" id="Layer_1" xmlns="http://www.w3.org/2000/svg" xmlns:xlink="http://www.w3.org/1999/xlink" x="0px" y="0px"
	 viewBox="0 0 128 128" style="enable-background:new 0 0 128 128;" xml:space="preserve">
<style type="text/css">
	.st0{fill:#B895F1;}
	.st1{fill:#FFFFFF;}
</style>
<path class="st0" d="M0,64.1C-0.1,28.8,28.5,0.1,63.9,0c35.3-0.1,64.1,28.5,64.1,63.9c0.1,35.4-28.5,64.1-63.9,64.1
	C28.8,128.1,0.1,99.5,0,64.1"/>
<path class="st1" d="M46.5,78.4L65,67.9l11.3,19.8c0.1,0.2,0.4,0.4,0.6,0.5c0.3,0.1,0.5,0,0.8-0.1L88,82.2l11.4,17.9H46.5V78.4
	L46.5,78.4z M27.9,45.4c0-9.7,7.9-17.6,17.6-17.6c5.4,0,10.2,2.4,13.4,6.2H45.5c-0.6,0-1,0.5-1,1v6c0,0.6,0.5,1,1,1h17.2
	c0.2,1.1,0.3,2.2,0.3,3.3c0,1-0.1,1.9-0.3,2.9H36.2c-0.6,0-1,0.5-1,1v6c0,0.6,0.5,1,1,1h23c-3.2,4-8.2,6.7-13.7,6.7
	C35.8,63,27.9,55.1,27.9,45.4L27.9,45.4z M60.6,54.3H37.2v-4h25.1C61.9,51.7,61.3,53.1,60.6,54.3L60.6,54.3z M62.2,40.1H46.5v-4
	h13.8C61.1,37.3,61.8,38.6,62.2,40.1z M100.2,97.7L89.2,80.3c-0.3-0.5-0.9-0.6-1.4-0.3l-10.2,5.9L66.3,66.1
	c-0.3-0.5-0.9-0.7-1.4-0.4L46.5,76.1V65c6.5-0.3,12.2-3.8,15.5-9c0.1-0.1,0.1-0.2,0.2-0.3c1.7-2.8,2.8-6.1,2.9-9.6h35.2L100.2,97.7
	L100.2,97.7z M102.2,101.3C102.2,101.2,102.2,101.2,102.2,101.3l0-56.2c0-0.6-0.5-1-1-1H65c-0.7-10.2-9.2-18.2-19.5-18.2
	c-10.8,0-19.6,8.8-19.6,19.6c0,10.5,8.2,19,18.6,19.5v36.2c0,0.6,0.5,1,1,1h55.8c0.2,0,0.3-0.1,0.5-0.1c0,0,0,0,0.1,0
	c0,0,0-0.1,0.1-0.1c0.1,0,0.1-0.1,0.1-0.1c0-0.1,0.1-0.1,0.1-0.2l0.1-0.2C102.2,101.4,102.2,101.3,102.2,101.3L102.2,101.3z
	 M82.8,54.4c1.9,0,3.5,1.6,3.5,3.5c0,1.9-1.6,3.5-3.5,3.5c-1.9,0-3.5-1.6-3.5-3.5C79.3,55.9,80.8,54.4,82.8,54.4 M82.8,63.4
	c3,0,5.5-2.5,5.5-5.5c0-3-2.5-5.5-5.5-5.5s-5.5,2.5-5.5,5.5C77.2,60.9,79.7,63.4,82.8,63.4"/>
</svg>
